# xmcd CD database file
#
# Track frame offsets:
#	187
#	48497
#	69655
#	96520
#	122197
#	140895
#
# Disc length: 2190 seconds
#
# Revision: 0
# Processed by: cddbd v1.5.1PL0 Copyright (c) Steve Scherf et al.
# Submitted via: CDex 1.51
#
DISCID=60088c06
DTITLE=Quincy Jones - This Is How I Feel About Jazz
DYEAR=1956
DGENRE=Jazz
TTITLE0=Walkin'
TTITLE1=A Sleepin' Bee
TTITLE2=Sermonette
TTITLE3=Stockholm Sweetnin'
TTITLE4=Evening In Paris
TTITLE5=Boo's Bloos
EXTD=YEAR: 1956
EXTT0=
EXTT1=
EXTT2=
EXTT3=
EXTT4=
EXTT5=
PLAYORDER=
